<svg width="512" height="512" viewBox="0 0 512 512" xmlns="http://www.w3.org/2000/svg">
  <!-- Background -->
  <rect x="0" y="0" width="512" height="512" rx="112" fill="#1A1A2E"/>

  <!-- Gauge arc background -->
  <path d="M 256 340 m -168 0 a 168 168 0 1 1 336 0"
        fill="none" stroke="#2D2D4E" stroke-width="38" stroke-linecap="round"/>

  <!-- Gauge arc fill ~65% -->
  <path d="M 256 340 m -168 0 a 168 168 0 0 1 301.4 -84"
        fill="none" stroke="#6C63FF" stroke-width="38" stroke-linecap="round"/>

  <!-- Tick marks -->
  <line x1="88"  y1="340" x2="104" y2="340" stroke="#4A4A6A" stroke-width="6" stroke-linecap="round"/>
  <line x1="424" y1="340" x2="408" y2="340" stroke="#4A4A6A" stroke-width="6" stroke-linecap="round"/>
  <line x1="256" y1="172" x2="256" y2="188" stroke="#4A4A6A" stroke-width="6" stroke-linecap="round"/>
  <line x1="138" y1="214" x2="148" y2="226" stroke="#4A4A6A" stroke-width="6" stroke-linecap="round"/>
  <line x1="374" y1="214" x2="364" y2="226" stroke="#4A4A6A" stroke-width="6" stroke-linecap="round"/>

  <!-- Center pivot -->
  <circle cx="256" cy="340" r="12" fill="#6C63FF"/>

  <!-- Needle -->
  <line x1="256" y1="340" x2="433" y2="222"
        stroke="#A89FFF" stroke-width="8" stroke-linecap="round"/>

  <!-- Needle cap -->
  <circle cx="256" cy="340" r="6" fill="#A89FFF"/>

  <!-- Label -->
  <text x="256" y="415"
        font-family="-apple-system, BlinkMacSystemFont, 'Segoe UI', sans-serif"
        font-size="48" font-weight="500"
        fill="#A89FFF" text-anchor="middle">AIUsage</text>
</svg>
